<?xml version="1.0" encoding="UTF-8" standalone="no"?>
<!-- Created with Inkscape (http://www.inkscape.org/) -->

<svg
   xmlns:dc="http://purl.org/dc/elements/1.1/"
   xmlns:cc="http://creativecommons.org/ns#"
   xmlns:rdf="http://www.w3.org/1999/02/22-rdf-syntax-ns#"
   xmlns:svg="http://www.w3.org/2000/svg"
   xmlns="http://www.w3.org/2000/svg"
   xmlns:sodipodi="http://sodipodi.sourceforge.net/DTD/sodipodi-0.dtd"
   xmlns:inkscape="http://www.inkscape.org/namespaces/inkscape"
   id="Layer_3"
   xml:space="preserve"
   height="22.0219"
   width="25.115526"
   version="1.0"
   viewBox="0 0 25.115485 22.0219"
   inkscape:version="0.91 r13725"
   sodipodi:docname="attention.svg"><metadata
   id="metadata11"><rdf:RDF><cc:Work
       rdf:about=""><dc:format>image/svg+xml</dc:format><dc:type
         rdf:resource="http://purl.org/dc/dcmitype/StillImage" /><dc:title></dc:title></cc:Work></rdf:RDF></metadata><defs
   id="defs9" /><sodipodi:namedview
   pagecolor="#ffffff"
   bordercolor="#666666"
   borderopacity="1"
   objecttolerance="10"
   gridtolerance="10"
   guidetolerance="10"
   inkscape:pageopacity="0"
   inkscape:pageshadow="2"
   inkscape:window-width="1536"
   inkscape:window-height="864"
   id="namedview7"
   showgrid="false"
   inkscape:zoom="0.42874011"
   inkscape:cx="-403.83194"
   inkscape:cy="99.639718"
   inkscape:window-x="1525"
   inkscape:window-y="0"
   inkscape:window-maximized="0"
   inkscape:current-layer="Layer_3"
   fit-margin-top="0"
   fit-margin-left="0"
   fit-margin-right="0"
   fit-margin-bottom="0" />
<path
   id="path2231"
   d="M 24.979651,20.50276 13.435011,0.50665 C 13.254031,0.19312 12.919761,0 12.557801,0 c -0.36196,0 -0.69623,0.19312 -0.87721,0.50649 L 0.13554123,20.50259 c -0.18077,0.3132 -0.18077,0.69954 1.3e-4,1.01315 0.18093,0.3132 0.51533,0.50616 0.87720997,0.50616 l 23.0896798,0 c 0.36196,0 0.69665,-0.19296 0.87721,-0.50616 0.18098,-0.31361 0.18098,-0.69995 0,-1.01315 z"
   inkscape:connector-curvature="0"
   style="fill:#ea0000" />
<polygon
   id="polygon2233"
   points="533.9,482.88 313.94,101.89 93.977,482.88 "
   transform="matrix(0.04131938,0,0,0.04131938,-0.41400877,-0.36105)"
   style="fill:#ffffff" />
<path
   id="path2235"
   d="m 11.645881,13.82637 c 0.05,0.47476 0.13264,0.82804 0.24875,1.06026 0.1161,0.23262 0.32311,0.34832 0.62144,0.34832 l 0.0831,0 c 0.29833,0 0.50575,-0.1157 0.62144,-0.34832 0.11611,-0.23222 0.19916,-0.5855 0.24875,-1.06026 l 0.26527,-3.6671 c 0.05,-0.71482 0.0748,-1.22759 0.0748,-1.53914 0,-0.42353 -0.12024,-0.75408 -0.36072,-0.99125 -0.2285,-0.22561 -0.55286,-0.35494 -0.89085,-0.35494 -0.33799,0 -0.66276,0.12933 -0.89126,0.35494 -0.24006,0.23717 -0.3603,0.56772 -0.3603,0.99125 0,0.31155 0.0248,0.82432 0.0744,1.53914 l 0.26527,3.6671 z"
   inkscape:connector-curvature="0" />
<circle
   id="circle2237"
   cy="17.438915"
   cx="12.557811"
   r="1.2704471" />
</svg>