<?xml version="1.0" encoding="utf-8"?>
<!-- Generator: Adobe Illustrator 16.0.0, SVG Export Plug-In . SVG Version: 6.00 Build 0)  -->
<!DOCTYPE svg PUBLIC "-//W3C//DTD SVG 1.1//EN" "http://www.w3.org/Graphics/SVG/1.1/DTD/svg11.dtd">
<svg version="1.1" id="Calque_1" xmlns:sketch="http://www.bohemiancoding.com/sketch/ns"
	 xmlns="http://www.w3.org/2000/svg" xmlns:xlink="http://www.w3.org/1999/xlink" x="0px" y="0px" width="32px" height="32px"
	 viewBox="0 0 32 32" enable-background="new 0 0 32 32" xml:space="preserve">
<title></title>
<desc></desc>
<g id="Page-1">
	<g id="icon-27-one-finger-click">
		<path id="one-finger-click" fill="#FFFFFF" stroke="#000000" stroke-width="0.25" stroke-miterlimit="10" d="M13.125,0v4h1V0
			H13.125L13.125,0z M19.527,2.577l-3.109,2.518l0.629,0.777l3.108-2.517L19.527,2.577L19.527,2.577z M21.531,9.313l-3.896-0.9
			L17.41,9.387l3.896,0.9L21.531,9.313L21.531,9.313z M5.942,10.287l3.897-0.9L9.614,8.413l-3.897,0.9L5.942,10.287L5.942,10.287z
			 M7.093,3.354l3.108,2.517l0.629-0.777L7.722,2.577L7.093,3.354L7.093,3.354z M19.623,31c4.143,0,7.502-3.585,7.502-7.5
			c0,0,0,2.313,0,0v-3.751v-2.247c0-0.83-0.666-1.502-1.5-1.502c-0.829,0-1.5,0.672-1.5,1.502V18h-1v-2.494
			c0-0.832-0.666-1.506-1.5-1.506c-0.829,0-1.5,0.671-1.5,1.506V17h-1v-2.494c0-0.832-0.666-1.506-1.5-1.506
			c-0.829,0-1.5,0.671-1.5,1.506V18h-1V7.505c0-0.832-0.666-1.505-1.5-1.505c-0.829,0-1.5,0.667-1.5,1.505V18.8
			c-2.059-2.2-4.769-4.621-5.879-3.504C5.158,16.389,7.96,19.4,11.872,25.982C13.634,28.949,15.865,31,19.623,31L19.623,31z
			 M28.125,23.5c0,4.694-3.807,8.5-8.5,8.5c-3.113,0-6.399-1.453-8.66-5.572c-3.264-5.945-7.437-9.845-5.45-11.832
			c1.421-1.421,3.654-0.058,5.609,1.771l0,0V7.508c0-1.393,1.119-2.508,2.5-2.508c1.39,0,2.5,1.123,2.5,2.508v4.99
			c0.418-0.313,0.937-0.499,1.5-0.499c1.082,0,1.994,0.678,2.346,1.628c0.44-0.39,1.02-0.628,1.654-0.628
			c1.39,0,2.5,1.118,2.5,2.498v0.014c0.418-0.313,0.937-0.497,1.5-0.497c1.39,0,2.5,1.12,2.5,2.5V23.5L28.125,23.5z"/>
	</g>
</g>
</svg>
