<?xml version="1.0" encoding="utf-8"?>
<!-- Generator: Adobe Illustrator 16.0.0, SVG Export Plug-In . SVG Version: 6.00 Build 0)  -->
<!DOCTYPE svg PUBLIC "-//W3C//DTD SVG 1.1//EN" "http://www.w3.org/Graphics/SVG/1.1/DTD/svg11.dtd">
<svg version="1.1" id="Calque_1" xmlns="http://www.w3.org/2000/svg" xmlns:xlink="http://www.w3.org/1999/xlink" x="0px" y="0px"
	 width="30px" height="30px" viewBox="0 0 30 30" enable-background="new 0 0 30 30" xml:space="preserve">
<g id="Facebook" transform="translate(79.000000, 0.000000)">
	<path fill="#3C5A99" d="M-79.069,14.966c0-8.284,6.725-15,15.021-15c8.296,0,15.021,6.716,15.021,15s-6.726,15-15.021,15
		C-72.344,29.966-79.069,23.25-79.069,14.966z"/>
	<path id="Path_18_" fill="#FFFFFF" d="M-62.791,23.126v-8.161h2.252l0.299-2.812h-2.551l0.003-1.408
		c0-0.733,0.069-1.126,1.124-1.126h1.408V6.806h-2.254c-2.706,0-3.659,1.364-3.659,3.659v1.688h-1.687v2.813h1.687v8.161H-62.791z"
		/>
	<path id="reflec_28_" fill="#010101" fill-opacity="0.08" d="M-49.026,14.966c0,8.284-6.726,15-15.021,15
		c-3.077,0-5.938-0.924-8.319-2.508l17.213-24.583C-51.438,5.606-49.026,10.005-49.026,14.966z"/>
</g>
</svg>
