<?xml version="1.0" encoding="UTF-8" standalone="no"?>
<!-- Created with Inkscape (http://www.inkscape.org/) -->

<svg
   xmlns:dc="http://purl.org/dc/elements/1.1/"
   xmlns:cc="http://creativecommons.org/ns#"
   xmlns:rdf="http://www.w3.org/1999/02/22-rdf-syntax-ns#"
   xmlns:svg="http://www.w3.org/2000/svg"
   xmlns="http://www.w3.org/2000/svg"
   xmlns:sodipodi="http://sodipodi.sourceforge.net/DTD/sodipodi-0.dtd"
   xmlns:inkscape="http://www.inkscape.org/namespaces/inkscape"
   width="30"
   height="30"
   viewBox="0 0 30 30"
   id="svg4023"
   version="1.1"
   inkscape:version="0.91 r13725"
   sodipodi:docname="facebook.svg">
  <defs
     id="defs4025" />
  <sodipodi:namedview
     id="base"
     pagecolor="#ffffff"
     bordercolor="#666666"
     borderopacity="1.0"
     inkscape:pageopacity="0.0"
     inkscape:pageshadow="2"
     inkscape:zoom="11.2"
     inkscape:cx="4.2967139"
     inkscape:cy="-0.083336628"
     inkscape:document-units="px"
     inkscape:current-layer="layer1"
     showgrid="false"
     units="px"
     inkscape:window-width="1536"
     inkscape:window-height="841"
     inkscape:window-x="1528"
     inkscape:window-y="-8"
     inkscape:window-maximized="1" />
  <metadata
     id="metadata4028">
    <rdf:RDF>
      <cc:Work
         rdf:about="">
        <dc:format>image/svg+xml</dc:format>
        <dc:type
           rdf:resource="http://purl.org/dc/dcmitype/StillImage" />
        <dc:title></dc:title>
      </cc:Work>
    </rdf:RDF>
  </metadata>
  <g
     inkscape:label="Calque 1"
     inkscape:groupmode="layer"
     id="layer1"
     transform="translate(0,-1022.3622)">
    <g
       style="fill:none;fill-rule:evenodd;stroke:none;stroke-width:1"
       transform="matrix(0.5,0,0,0.5,0.0105285,1022.3622)"
       id="Facebook">
      <path
         style="fill:#3b5998"
         inkscape:connector-curvature="0"
         id="path3578"
         d="m 0.11416185,30 c 0,-16.568543 13.45086615,-30 30.04335315,-30 16.592486,0 30.043352,13.431457 30.043352,30 0,16.568543 -13.450866,30 -30.043352,30 C 13.565028,60 0.11416185,46.568543 0.11416185,30 Z m 0,0" />
      <path
         style="fill:#ffffff"
         inkscape:connector-curvature="0"
         id="path3580"
         d="m 32.669715,46.319673 0,-16.321584 4.505471,0 0.597072,-5.624508 -5.102543,0 0.0077,-2.815121 c 0,-1.466958 0.13938,-2.252988 2.246356,-2.252988 l 2.816637,0 0,-5.625145 -4.506109,0 c -5.412561,0 -7.317643,2.728492 -7.317643,7.316957 l 0,3.376934 -3.37384,0 0,5.624508 3.37384,0 0,16.320947 6.753104,0 z m 0,0" />
      <path
         style="fill:#000000;fill-opacity:0.07999998"
         inkscape:connector-curvature="0"
         id="path3582"
         d="m 60.200867,30 c 0,16.568543 -13.450866,30 -30.043352,30 -6.153761,0 -11.875393,-1.847487 -16.638864,-5.017225 L 47.94321,5.819411 C 55.376973,11.28065 60.200867,20.077797 60.200867,30 Z m 0,0" />
    </g>
  </g>
</svg>
