<?xml version="1.0" encoding="utf-8"?>
<!-- Generator: Adobe Illustrator 16.0.0, SVG Export Plug-In . SVG Version: 6.00 Build 0)  -->
<!DOCTYPE svg PUBLIC "-//W3C//DTD SVG 1.1//EN" "http://www.w3.org/Graphics/SVG/1.1/DTD/svg11.dtd">
<svg version="1.1" id="Calque_1" xmlns="http://www.w3.org/2000/svg" xmlns:xlink="http://www.w3.org/1999/xlink" x="0px" y="0px"
	 width="30px" height="30px" viewBox="0 0 30 30" enable-background="new 0 0 30 30" xml:space="preserve">
<g id="Google__x2B_" transform="translate(157.000000, 0.500000)">
	<path fill="#D34936" d="M-157.038,14.455c0-8.284,6.725-15,15.021-15c8.296,0,15.021,6.716,15.021,15s-6.725,15-15.021,15
		S-157.038,22.739-157.038,14.455z"/>
	<path id="Shape_24_" fill="#FFFFFF" d="M-127.462,11.002h-3.551v3.941h-1.676v-3.941h-3.906V9.361h3.906V5.455h1.674v3.906h2.984
		C-127.812,9.894-127.62,10.441-127.462,11.002z"/>
	<path id="Path_6_" fill="#FFFFFF" d="M-152.912,24.162c0.42-0.705,1.071-1.398,2.036-1.968c2.177-1.332,5.11-1.509,6.695-1.608
		c-0.491-0.629-1.057-1.295-1.057-2.388c0-0.591,0.176-0.942,0.353-1.357c-0.39,0.038-0.768,0.075-1.12,0.075
		c-3.712,0-5.814-2.765-5.814-5.491c0-1.608,0.743-3.396,2.24-4.688c2-1.642,4.379-1.922,6.266-1.922h7.21l-2.238,1.258h-2.166
		c0.807,0.664,2.48,2.063,2.48,4.725c0,2.589-1.473,3.807-2.932,4.963c-0.467,0.453-0.983,0.943-0.983,1.709
		c0,0.767,0.516,1.194,0.906,1.509l1.258,0.979c1.549,1.282,2.945,2.477,2.945,4.889c0,1.591-0.742,3.188-2.191,4.413
		c-0.781,0.127-1.58,0.194-2.395,0.196c1.471-0.645,2.233-1.823,2.233-3.239c0-1.784-1.145-2.728-3.813-4.625
		c-0.277-0.024-0.452-0.024-0.805-0.024c-0.314,0-2.202,0.063-3.675,0.553c-0.768,0.275-3.008,1.118-3.008,3.605
		c0,0.271,0.029,0.533,0.085,0.785C-154.09,23.776-152.492,24.162-152.912,24.162z M-141.111,12.405
		c0-2.526-1.497-6.438-4.404-6.438c-0.907,0-1.888,0.455-2.454,1.155c-0.592,0.734-0.768,1.676-0.768,2.581
		c0,2.35,1.359,6.233,4.379,6.233c0.868,0,1.812-0.427,2.378-0.98C-141.173,14.151-141.111,13.034-141.111,12.405z"/>
	<path id="reflec_20_" fill="#010101" fill-opacity="0.08" d="M-126.962,14.545c0,8.284-6.725,15-15.021,15
		c-3.077,0-5.938-0.924-8.319-2.508l17.212-24.582C-129.374,5.186-126.962,9.584-126.962,14.545z"/>
</g>
</svg>
