<?xml version="1.0" encoding="UTF-8" standalone="no"?>
<!-- Created with Inkscape (http://www.inkscape.org/) -->

<svg
   xmlns:dc="http://purl.org/dc/elements/1.1/"
   xmlns:cc="http://creativecommons.org/ns#"
   xmlns:rdf="http://www.w3.org/1999/02/22-rdf-syntax-ns#"
   xmlns:svg="http://www.w3.org/2000/svg"
   xmlns="http://www.w3.org/2000/svg"
   xmlns:sodipodi="http://sodipodi.sourceforge.net/DTD/sodipodi-0.dtd"
   xmlns:inkscape="http://www.inkscape.org/namespaces/inkscape"
   width="30"
   height="30"
   viewBox="0 0 30 30"
   id="svg4129"
   version="1.1"
   inkscape:version="0.91 r13725"
   sodipodi:docname="google.svg">
  <defs
     id="defs4131" />
  <sodipodi:namedview
     id="base"
     pagecolor="#ffffff"
     bordercolor="#666666"
     borderopacity="1.0"
     inkscape:pageopacity="0.0"
     inkscape:pageshadow="2"
     inkscape:zoom="15.839192"
     inkscape:cx="14.992816"
     inkscape:cy="17.774786"
     inkscape:document-units="px"
     inkscape:current-layer="Google +"
     showgrid="false"
     units="px"
     inkscape:window-width="1536"
     inkscape:window-height="841"
     inkscape:window-x="1528"
     inkscape:window-y="-8"
     inkscape:window-maximized="1" />
  <metadata
     id="metadata4134">
    <rdf:RDF>
      <cc:Work
         rdf:about="">
        <dc:format>image/svg+xml</dc:format>
        <dc:type
           rdf:resource="http://purl.org/dc/dcmitype/StillImage" />
        <dc:title></dc:title>
      </cc:Work>
    </rdf:RDF>
  </metadata>
  <g
     inkscape:label="Calque 1"
     inkscape:groupmode="layer"
     id="layer1"
     transform="translate(0,-1022.3622)">
    <g
       style="fill:none;fill-rule:evenodd;stroke:none;stroke-width:1"
       transform="translate(-12.8919,1008.7611)"
       id="Google +">
      <path
         style="fill:#d34836"
         inkscape:connector-curvature="0"
         id="path3511"
         d="m 12.816484,28.719322 c 0,-8.284271 6.725433,-15 15.021677,-15 8.296243,0 15.021676,6.715729 15.021676,15 0,8.284272 -6.725433,15 -15.021676,15 -8.296244,0 -15.021677,-6.715728 -15.021677,-15 z m 0,0" />
      <path
         style="fill:#ffffff"
         inkscape:connector-curvature="0"
         id="path3513"
         d="m 42.393085,25.266472 -3.552323,0 0,3.941364 -1.674414,0 0,-3.941364 -3.906945,0 0,-1.640415 3.906945,0 0,-3.906735 1.674414,0 0,3.906735 2.982727,0 c 0.220299,0.532085 0.410862,1.079605 0.569596,1.640415 z m 0,0" />
      <path
         style="fill:#ffffff"
         inkscape:connector-curvature="0"
         id="path3515"
         d="m 16.943159,38.426905 c 0.420032,-0.705326 1.071325,-1.398771 2.036176,-1.968621 2.177035,-1.331982 5.109111,-1.507904 6.694698,-1.608431 -0.490777,-0.628293 -1.057058,-1.294283 -1.057058,-2.387513 0,-0.590595 0.176176,-0.942439 0.352353,-1.357113 -0.390105,0.0377 -0.767626,0.0754 -1.119978,0.0754 -3.712286,0 -5.813817,-2.764489 -5.813817,-5.49128 0,-1.60843 0.742457,-3.395296 2.239956,-4.688323 2.000859,-1.642358 4.379238,-1.922576 6.266841,-1.922576 l 7.210643,0 -2.239956,1.257842 -2.164451,0 c 0.805377,0.664734 2.479052,2.063314 2.479052,4.724764 0,2.588567 -1.47233,3.807455 -2.932077,4.963514 -0.465608,0.452371 -0.981553,0.94244 -0.981553,1.708957 0,0.766518 0.515945,1.193757 0.906049,1.507903 l 1.258402,0.980137 c 1.547834,1.281718 2.944661,2.475475 2.944661,4.88812 0,1.59105 -0.743568,3.18797 -2.192355,4.413495 -0.779519,0.126904 -1.579191,0.193897 -2.394122,0.196092 1.471131,-0.644391 2.233265,-1.823407 2.233265,-3.239908 0,-1.784352 -1.145146,-2.726792 -3.812958,-4.624237 -0.276848,-0.02513 -0.453024,-0.02513 -0.805377,-0.02513 -0.3146,0 -2.202203,0.06283 -3.674533,0.552898 -0.767625,0.276449 -3.007581,1.118361 -3.007581,3.606402 0,0.270389 0.02882,0.532532 0.08507,0.785006 -3.689678,-2.733112 -2.091316,-2.347392 -2.511348,-2.347393 z M 28.744533,26.669479 c 0,-2.525738 -1.497498,-6.43749 -4.404406,-6.43749 -0.90605,0 -1.887603,0.454884 -2.453884,1.154802 -0.591449,0.733846 -0.767625,1.676286 -0.767625,2.581028 0,2.349816 1.359074,6.232666 4.379238,6.232666 0.868298,0 1.812099,-0.427239 2.37838,-0.980137 0.805377,-0.804215 0.868297,-1.922576 0.868297,-2.550869 z m 0,0" />
      <path
         style="fill:#000000;fill-opacity:0.07999998"
         inkscape:connector-curvature="0"
         id="path3517"
         d="m 42.893085,28.809617 c 0,8.284271 -6.725433,15 -15.021676,15 -3.076881,0 -5.937697,-0.923744 -8.319432,-2.508613 L 36.764256,16.719322 c 3.716882,2.73062 6.128829,7.129193 6.128829,12.090295 z m 0,0" />
    </g>
  </g>
</svg>
