<?xml version="1.0" encoding="utf-8"?>
<!-- Generator: Adobe Illustrator 16.0.0, SVG Export Plug-In . SVG Version: 6.00 Build 0)  -->
<!DOCTYPE svg PUBLIC "-//W3C//DTD SVG 1.1//EN" "http://www.w3.org/Graphics/SVG/1.1/DTD/svg11.dtd">
<svg version="1.1"
	 id="svg11300" xmlns:sodipodi="http://sodipodi.sourceforge.net/DTD/sodipodi-0.dtd" xmlns:inkscape="http://www.inkscape.org/namespaces/inkscape" xmlns:cc="http://web.resource.org/cc/" xmlns:rdf="http://www.w3.org/1999/02/22-rdf-syntax-ns#" xmlns:svg="http://www.w3.org/2000/svg" xmlns:dc="http://purl.org/dc/elements/1.1/" inkscape:output_extension="org.inkscape.output.svg.inkscape" sodipodi:docname="im-jabber.svg" sodipodi:docbase="/home/dobey/Projects/gnome-icon-theme/scalable/apps" inkscape:export-xdpi="90.000000" inkscape:version="0.45" inkscape:export-ydpi="90.000000" inkscape:export-filename="/home/jimmac/Desktop/wi-fi.png" sodipodi:version="0.32"
	 xmlns="http://www.w3.org/2000/svg" xmlns:xlink="http://www.w3.org/1999/xlink" x="0px" y="0px" width="30px" height="30px"
	 viewBox="9 9 30 30" enable-background="new 9 9 30 30" xml:space="preserve">
<sodipodi:namedview  fill="#fce94f" stroke="#3465a4" borderopacity="0.25490196" inkscape:cy="15.259883" inkscape:zoom="5.6568542" showgrid="true" id="base" bordercolor="#666666" pagecolor="#ffffff" inkscape:cx="34.890684" inkscape:window-y="82" inkscape:window-x="284" inkscape:window-height="630" inkscape:window-width="750" inkscape:showpageshadow="false" inkscape:document-units="px" inkscape:grid-bbox="true" inkscape:pageopacity="0.0" inkscape:current-layer="layer1" inkscape:pageshadow="2">
	</sodipodi:namedview>
<path fill="#FFFFFF" stroke="#000000" stroke-width="0.5" stroke-miterlimit="10" d="M8.926,24c0-8.284,6.725-15,15.021-15
	c8.297,0,15.021,6.716,15.021,15s-6.725,15-15.021,15C15.651,39,8.926,32.284,8.926,24z"/>
<g id="layer1" inkscape:label="Layer 1" inkscape:groupmode="layer">
	<g id="g4634" transform="translate(-60.46391,17)">
		
			<radialGradient id="path20208_1_" cx="213.1963" cy="-672.8042" r="3.9143" gradientTransform="matrix(2.3815 0 0 -0.7115 -422.728 -460.7771)" gradientUnits="userSpaceOnUse">
			<stop  offset="0" style="stop-color:#000000;stop-opacity:0.5155"/>
			<stop  offset="0.5517" style="stop-color:#000000;stop-opacity:0.1443"/>
			<stop  offset="1" style="stop-color:#000000;stop-opacity:0"/>
		</radialGradient>
		
			<path id="path20208" sodipodi:cy="42.0625" sodipodi:cx="26.0625" inkscape:r_cx="true" sodipodi:rx="13.8125" sodipodi:ry="4.4375" inkscape:r_cy="true" sodipodi:type="arc" opacity="0.8" fill="url(#path20208_1_)" enable-background="new    " d="
			M94.328,17.918c0,1.539-4.175,2.785-9.323,2.785s-9.322-1.246-9.322-2.785c0-1.537,4.174-2.785,9.322-2.785
			S94.328,16.381,94.328,17.918z"/>
		<path id="path19509" inkscape:r_cx="true" inkscape:r_cy="true" fill="#555753" stroke="#2E3436" d="M82.751,16.063v0.791
			c0,0.791,0.795,1.492,1.69,1.492c0.895,0,1.689-0.701,1.689-1.492v-0.791H82.751z"/>
		
			<path id="path3209" inkscape:r_cx="true" inkscape:r_cy="true" sodipodi:nodetypes="cccccccscccccccs" fill="#AEAE57" stroke="#C4A000" stroke-width="2" stroke-linecap="round" stroke-linejoin="round" d="
			M84.348,9.633c-1.841-0.004-3.93,0.547-2.798,1.59c-0.281,0.115-0.682,0.373-0.635,0.975c0.026,0.314,0.354,0.508,0.802,0.648
			c-0.508,0.363-0.831,0.746-0.802,1.1c0.025,0.311,0.347,0.523,0.785,0.666c-0.495,0.357-0.814,0.75-0.785,1.1
			c0.044,0.531,1.173,1.129,3.615,1.059c1.76-0.047,3.313-0.369,3.434-1.059c0.048-0.271-0.17-0.525-0.507-0.75
			c0.253-0.258,0.43-0.521,0.409-0.766c-0.026-0.313-0.343-0.523-0.786-0.666c0.496-0.359,0.815-0.75,0.786-1.098
			c-0.026-0.313-0.343-0.508-0.786-0.65c0.502-0.359,0.815-0.748,0.786-1.1C87.834,10.293,86.078,9.639,84.348,9.633z"/>
		
			<path id="path4702" sodipodi:cy="27.228739" sodipodi:cx="-13.87697" inkscape:r_cx="true" sodipodi:rx="10.341436" sodipodi:ry="3.2703688" inkscape:r_cy="true" sodipodi:type="arc" fill="#FCE94F" d="
			M87.82,10.609c0.066,0.781-1.438,1.752-3.358,2.168c-1.919,0.416-3.528,0.123-3.593-0.656c-0.064-0.781,1.439-1.752,3.359-2.168
			C86.147,9.537,87.757,9.83,87.82,10.609z"/>
		<path id="path3183" inkscape:r_cx="true" inkscape:r_cy="true" sodipodi:nodetypes="csccc" fill="#FCE94F" d="M87.922,15.686
			c-0.124,0.689-1.856,1.08-4.632,0.939c-1.757-0.09-1.857-0.592-1.735-1.281c0.123-0.691,1.648-1.174,3.405-1.08
			S88.044,14.996,87.922,15.686z"/>
		
			<path id="path1603" sodipodi:cy="27.228739" sodipodi:cx="-13.87697" inkscape:r_cx="true" sodipodi:rx="10.341436" sodipodi:ry="3.2703688" inkscape:r_cy="true" sodipodi:type="arc" fill="#FCE94F" d="
			M87.82,14.17c0.066,0.781-1.438,1.752-3.358,2.168c-1.919,0.416-3.528,0.123-3.593-0.658c-0.064-0.779,1.439-1.75,3.359-2.166
			C86.147,13.096,87.757,13.391,87.82,14.17z"/>
		
			<path id="path2364" sodipodi:cy="27.228739" sodipodi:cx="-13.87697" inkscape:r_cx="true" sodipodi:rx="10.341436" sodipodi:ry="3.2703688" inkscape:r_cy="true" sodipodi:type="arc" fill="#FCE94F" d="
			M87.82,12.412c0.066,0.781-1.438,1.752-3.358,2.17c-1.919,0.416-3.528,0.121-3.593-0.658s1.439-1.75,3.359-2.168
			C86.147,11.34,87.757,11.633,87.82,12.412z"/>
		
			<path id="path20372" sodipodi:cy="22.375" sodipodi:cx="27.75" inkscape:r_cx="true" sodipodi:rx="3.25" sodipodi:ry="3.25" inkscape:r_cy="true" sodipodi:type="arc" fill="#FFFFFF" d="
			M83.029,13.643c0,0.342-0.271,0.619-0.608,0.619c-0.336,0-0.607-0.277-0.607-0.619s0.271-0.617,0.607-0.617
			C82.758,13.025,83.029,13.301,83.029,13.643z"/>
		
			<path id="path2435" sodipodi:cy="22.375" sodipodi:cx="27.75" inkscape:r_cx="true" sodipodi:rx="3.25" sodipodi:ry="3.25" inkscape:r_cy="true" sodipodi:type="arc" fill="#FFFFFF" d="
			M83.029,15.35c0,0.342-0.271,0.619-0.608,0.619c-0.336,0-0.607-0.277-0.607-0.619s0.271-0.617,0.607-0.617
			C82.758,14.732,83.029,15.008,83.029,15.35z"/>
		
			<path id="path4708" sodipodi:cy="22.375" sodipodi:cx="27.75" inkscape:r_cx="true" sodipodi:rx="3.25" sodipodi:ry="3.25" inkscape:r_cy="true" sodipodi:type="arc" fill="#FFFFFF" d="
			M83.029,11.697c0,0.342-0.271,0.619-0.608,0.619c-0.336,0-0.607-0.277-0.607-0.619s0.271-0.619,0.607-0.619
			C82.758,11.078,83.029,11.355,83.029,11.697z"/>
		
			<path id="path4710" sodipodi:cy="27.228739" sodipodi:cx="-13.87697" inkscape:r_cx="true" sodipodi:rx="10.341436" sodipodi:ry="3.2703688" inkscape:r_cy="true" sodipodi:type="arc" fill="#FCE94F" d="
			M88.078,10.818c-0.117,0.773-1.802,1.361-3.764,1.314c-1.963-0.051-3.46-0.717-3.343-1.49c0.116-0.773,1.803-1.361,3.766-1.314
			C86.699,9.379,88.194,10.045,88.078,10.818z"/>
	</g>
	
		<radialGradient id="path3885_1_" cx="184.4395" cy="-158.4175" r="6.6213" gradientTransform="matrix(2.0536 0 0 -2.4638 -354.6696 -374.7008)" gradientUnits="userSpaceOnUse">
		<stop  offset="0" style="stop-color:#E9F1F8"/>
		<stop  offset="1" style="stop-color:#729FCF;stop-opacity:0.8365"/>
	</radialGradient>
	
		<linearGradient id="path3885_2_" gradientUnits="userSpaceOnUse" x1="305.4121" y1="-371.7417" x2="308.4065" y2="-382.1992" gradientTransform="matrix(1 0 0 -1 -282.5996 -356.9004)">
		<stop  offset="0" style="stop-color:#5B8CCB"/>
		<stop  offset="1" style="stop-color:#3465A4"/>
	</linearGradient>
	<path id="path3885" sodipodi:nodetypes="csszsssc" fill="url(#path3885_1_)" stroke="url(#path3885_2_)" d="M23.684,12.079
		c-3.773,0.219-6.768,3.402-6.768,7.281c0,2.185,0.998,4.048,2.423,6.089c1.283,1.838,2.695,2.656,4.563,2.656
		c2.255,0,3.918-1.045,5.219-3.383c1.049-1.88,2.165-3.57,2.165-5.363c0-4.021-3.218-7.281-7.184-7.281
		C23.961,12.079,23.822,12.071,23.684,12.079z"/>
	
		<radialGradient id="path4664_1_" cx="162.3213" cy="-129.792" r="6.5813" gradientTransform="matrix(2.4111 0 0 -2.8911 -367.2728 -360.8638)" gradientUnits="userSpaceOnUse">
		<stop  offset="0" style="stop-color:#FFFFFF"/>
		<stop  offset="1" style="stop-color:#FFFFFF;stop-opacity:0"/>
	</radialGradient>
	
		<path id="path4664" sodipodi:nodetypes="csszsssc" opacity="0.5934" fill="none" stroke="url(#path4664_1_)" stroke-width="1" enable-background="new    " d="
		M23.716,12.762c-3.476,0.201-6.233,3.134-6.233,6.707c0,1.813,1.269,3.584,2.361,5.371c1.212,1.986,2.347,2.482,4.258,2.482
		c2.026,0,3.197-0.615,4.396-2.693c1.019-1.767,2.223-3.458,2.223-5.16c0-3.703-2.965-6.707-6.618-6.707
		C23.972,12.762,23.844,12.754,23.716,12.762z"/>
	
		<linearGradient id="path4676_1_" gradientUnits="userSpaceOnUse" x1="306.8848" y1="-378.7588" x2="306.9822" y2="-382.9879" gradientTransform="matrix(1 0 0 -1 -282.5996 -356.9004)">
		<stop  offset="0" style="stop-color:#FCE94F"/>
		<stop  offset="1" style="stop-color:#FCE94F;stop-opacity:0"/>
	</linearGradient>
	
		<path id="path4676" sodipodi:nodetypes="cccc" fill="none" stroke="url(#path4676_1_)" stroke-width="3" stroke-linecap="round" stroke-linejoin="round" d="
		M25.434,26.982l2.188-7.256c-2.256-1.009-4.511-1.144-6.765,0.267l0.563,1.715"/>
	
		<linearGradient id="path4674_1_" gradientUnits="userSpaceOnUse" x1="307.0059" y1="-379.0547" x2="307.2751" y2="-382.7655" gradientTransform="matrix(1 0 0 -1 -282.5996 -356.9004)">
		<stop  offset="0" style="stop-color:#FFFFFF"/>
		<stop  offset="1" style="stop-color:#FFFFFF;stop-opacity:0"/>
	</linearGradient>
	
		<path id="path4674" sodipodi:nodetypes="cccc" fill="none" stroke="url(#path4674_1_)" stroke-linecap="round" stroke-linejoin="round" d="
		M25.434,26.881l2.188-7.155c-2.256-1.009-4.511-1.144-6.765,0.267l0.563,1.715"/>
</g>
</svg>
