<?xml version="1.0" encoding="UTF-8" standalone="no"?>
<!-- Created with Inkscape (http://www.inkscape.org/) -->

<svg
   xmlns:osb="http://www.openswatchbook.org/uri/2009/osb"
   xmlns:dc="http://purl.org/dc/elements/1.1/"
   xmlns:cc="http://creativecommons.org/ns#"
   xmlns:rdf="http://www.w3.org/1999/02/22-rdf-syntax-ns#"
   xmlns:svg="http://www.w3.org/2000/svg"
   xmlns="http://www.w3.org/2000/svg"
   xmlns:sodipodi="http://sodipodi.sourceforge.net/DTD/sodipodi-0.dtd"
   xmlns:inkscape="http://www.inkscape.org/namespaces/inkscape"
   width="30"
   height="30"
   viewBox="0 0 30 30"
   id="svg4204"
   version="1.1"
   inkscape:version="0.91 r13725"
   sodipodi:docname="mail.svg">
  <defs
     id="defs4206">
    <linearGradient
       id="linearGradient5037"
       osb:paint="solid">
      <stop
         style="stop-color:#000000;stop-opacity:1;"
         offset="0"
         id="stop5039" />
    </linearGradient>
  </defs>
  <sodipodi:namedview
     id="base"
     pagecolor="#ffffff"
     bordercolor="#666666"
     borderopacity="1.0"
     inkscape:pageopacity="0.0"
     inkscape:pageshadow="2"
     inkscape:zoom="22.4"
     inkscape:cx="10.18759"
     inkscape:cy="13.66199"
     inkscape:document-units="px"
     inkscape:current-layer="layer1"
     showgrid="false"
     units="px" />
  <metadata
     id="metadata4209">
    <rdf:RDF>
      <cc:Work
         rdf:about="">
        <dc:format>image/svg+xml</dc:format>
        <dc:type
           rdf:resource="http://purl.org/dc/dcmitype/StillImage" />
        <dc:title></dc:title>
      </cc:Work>
    </rdf:RDF>
  </metadata>
  <g
     inkscape:label="Calque 1"
     inkscape:groupmode="layer"
     id="layer1"
     transform="translate(0,-1022.3622)">
    <path
       d="m -0.12192658,1037.3655 c 0,-8.2843 6.72543318,-15 15.02167658,-15 8.296243,0 15.021676,6.7157 15.021676,15 0,8.2843 -6.725433,15 -15.021676,15 -8.2962434,0 -15.02167658,-6.7157 -15.02167658,-15 z m 0,0"
       id="path3372"
       inkscape:connector-curvature="0"
       style="fill:#ffffff;fill-rule:evenodd;stroke:#000000;stroke-width:0.30000001;stroke-miterlimit:4;stroke-dasharray:none;stroke-opacity:1" />
    <path
       d="m 17.575115,1038.4079 6.188797,-5.8192 0,10.2882 z m -10.8112034,-5.8192 6.1886644,5.8186 -6.1886644,4.4696 z m 8.5000004,7.9922 1.477406,-1.3889 7.022594,4.3967 -17.0000004,0 7.0224274,-4.3967 z m 7.99,-7.9922 -7.99,6.2275 -7.9900004,-6.2275 z m 0,0"
       id="path3374"
       inkscape:connector-curvature="0"
       style="fill:#333333;fill-rule:evenodd;stroke:none;stroke-width:1" />
    <path
       d="m 29.921426,1037.5887 c 0,8.2843 -6.725433,15 -15.021676,15 -3.07688,0 -5.9376969,-0.9237 -8.3194319,-2.5086 l 17.2122799,-24.5817 c 3.716881,2.7306 6.128828,7.1292 6.128828,12.0903 z m 0,0"
       id="path3376"
       inkscape:connector-curvature="0"
       style="fill:#000000;fill-opacity:0.07999998;fill-rule:evenodd;stroke:none;stroke-width:1" />
  </g>
</svg>
