<?xml version="1.0" encoding="utf-8"?>
<!-- Generator: Adobe Illustrator 16.0.0, SVG Export Plug-In . SVG Version: 6.00 Build 0)  -->
<!DOCTYPE svg PUBLIC "-//W3C//DTD SVG 1.1//EN" "http://www.w3.org/Graphics/SVG/1.1/DTD/svg11.dtd">
<svg version="1.1" id="Calque_1" xmlns="http://www.w3.org/2000/svg" xmlns:xlink="http://www.w3.org/1999/xlink" x="0px" y="0px"
	 width="35px" height="35px" viewBox="0 0 35 35" enable-background="new 0 0 35 35" xml:space="preserve">
<path fill="#FFFFFF" stroke="#000000" stroke-width="0.5" stroke-miterlimit="10" d="M2.926,18c0-8.284,6.725-15,15.021-15
	c8.297,0,15.021,6.716,15.021,15s-6.725,15-15.021,15C9.651,33,2.926,26.284,2.926,18z"/>
<path id="Shape_10_" fill="#333333" d="M20.623,18.819L26.812,13v10.289L20.623,18.819z M9.812,13L16,18.818l-6.188,4.471V13z
	 M18.312,20.992l1.478-1.389L26.812,24h-17l7.022-4.396L18.312,20.992z M26.301,13l-7.989,6.228L10.321,13H26.301z"/>
<path id="reflec_2_" fill="#010101" fill-opacity="0.08" d="M32.969,18c0,8.284-6.725,15-15.021,15
	c-3.077,0-5.938-0.924-8.319-2.508L26.84,5.91C30.557,8.641,32.969,13.039,32.969,18z"/>
</svg>
