<?xml version="1.0" encoding="utf-8"?>
<!-- Generator: Adobe Illustrator 16.0.0, SVG Export Plug-In . SVG Version: 6.00 Build 0)  -->
<!DOCTYPE svg PUBLIC "-//W3C//DTD SVG 1.1//EN" "http://www.w3.org/Graphics/SVG/1.1/DTD/svg11.dtd">
<svg version="1.1" id="Calque_1" xmlns="http://www.w3.org/2000/svg" xmlns:xlink="http://www.w3.org/1999/xlink" x="0px" y="0px"
	 width="30px" height="30px" viewBox="1009 1009 30 30" enable-background="new 1009 1009 30 30" xml:space="preserve">
<path fill="#FFFFFF" stroke="#000000" stroke-width="0.5" stroke-miterlimit="10" d="M1009.277,1024.258c0-8.284,6.725-15,15.021-15
	c8.297,0,15.02,6.716,15.02,15s-6.725,15-15.02,15C1016.002,1039.258,1009.277,1032.542,1009.277,1024.258z"/>
<g id="Layer_x0020_1">
	<g id="_391042656">
		<path id="_391043472" fill="#00A3E1" d="M1011.859,1018.957c-0.44,0.255-0.334,1.087,0.152,2.175
			c1.702,3.804,4.06,6.914,7.066,9.255c2.462-1.553,0.773-2.443,1.095-3.534c0.513-1.081,0.678-2.132,2.036-2.492l-0.166-1.039
			c-2.342-2.134-5.025-3.766-8.05-4.572C1013.34,1018.574,1012.57,1018.543,1011.859,1018.957L1011.859,1018.957z"/>
		<path id="_391043112" fill="#F4A85E" d="M1023.664,1023.833c1.081,1.829,1.815,3.534,2.231,5.209l0.055,0.305l0.098,0.319
			c1.357,0.567,2.756,0.831,4.211,0.665c1.51-0.208,2.605-0.832,3.27-1.912l0.791-1.829c-0.998-1.815-2.66-2.965-4.988-3.381
			C1027.348,1022.905,1025.479,1023.113,1023.664,1023.833L1023.664,1023.833z"/>
		<path id="_391042368" fill="#2264A9" d="M1025.895,1029.043c-0.416-1.676-1.15-3.381-2.231-5.209l-0.111-0.152l-0.568-0.887
			c-0.263-0.36-0.443-0.44-0.679-0.336c-0.246,0.108-0.36,0.294-0.263,0.71v0.152l0.167,1.039l0.042,0.36l1.871,5.154l0.208,0.415
			c0.623,0.983,1.302,1.815,1.98,2.438l-0.262-2.909l-0.098-0.472L1025.895,1029.043L1025.895,1029.043z"/>
		<path id="_391042488" fill="#EC613F" d="M1023.664,1023.833c1.815-0.72,3.684-0.928,5.667-0.624
			c2.328,0.416,3.99,1.565,4.988,3.381c1.496-4.004,1.721-7.385,0.359-10.031c-0.24-0.469-0.617-0.875-1.039-1.191
			c-0.824-0.618-1.809-0.512-2.854,0c-4.164,2.038-6.737,4.641-7.624,7.702l0.392,0.611L1023.664,1023.833L1023.664,1023.833z"/>
		<path id="_391042248" fill="#00AB58" d="M1022.251,1024.72l-0.042-0.36c-1.358,0.36-2.3,1.095-2.813,2.175
			c-0.526,1.095-0.624,2.342-0.319,3.852l1.095,0.734c1.096,0.334,2.182,0.516,3.228,0.152l0.929-0.983l-0.208-0.415
			L1022.251,1024.72L1022.251,1024.72z"/>
		<path id="_391042224" fill="#75C05B" d="M1019.077,1030.386c1.095,2.813,2.689,4.967,5.001,6.083
			c0.342,0.165,0.775,0.171,1.136,0.056c0.234-0.075,0.365-0.346,0.471-0.568c0.361-0.766,0.514-1.829,0.623-3.229
			c-0.678-0.623-1.357-1.455-1.98-2.438C1022.32,1031.586,1021.198,1031.809,1019.077,1030.386L1019.077,1030.386z"/>
		<path id="_391042680" fill="#FFCC35" d="M1030.369,1035.375c0.412,0.045,0.75-0.18,1.039-0.416
			c1.168-0.957,2.047-2.124,2.59-3.588c0.594-1.599,0.68-3.159,0.32-4.78l-0.791,1.829c-0.664,1.08-1.76,1.704-3.27,1.912
			c-1.455,0.166-2.854-0.098-4.211-0.665v0.152l0.262,2.909c0.93,0.984,2.066,1.843,3.381,2.438
			C1029.906,1035.264,1030.133,1035.349,1030.369,1035.375L1030.369,1035.375z"/>
	</g>
</g>
</svg>
