<?xml version="1.0" ?><!DOCTYPE svg  PUBLIC '-//W3C//DTD SVG 1.1//EN'  'http://www.w3.org/Graphics/SVG/1.1/DTD/svg11.dtd'><svg enable-background="new 0 0 64 64" height="64px" id="Layer_1" version="1.1" viewBox="0 0 64 64" width="64px" xml:space="preserve" xmlns="http://www.w3.org/2000/svg" xmlns:xlink="http://www.w3.org/1999/xlink"><g><path d="M37.123,10.286c0,0,6.575,1.332,10.597,5.956c4.021,4.623,3.885,5.05,5.494,9.526   c0.537,1.462,1.608,1.329,2.01,1.261c0.402-0.067,1.608-0.67,0.905-2.747c-0.704-2.078-3.812-13.268-17.702-16.886   c-1.43-0.269-1.957,0.201-2.184,0.854C36.018,8.904,36.183,10.048,37.123,10.286z" fill="#241F20"/><path d="M25.313,10.286c0,0-6.574,1.332-10.594,5.956c-4.021,4.623-3.885,5.05-5.494,9.526   c-0.537,1.462-1.608,1.329-2.01,1.261c-0.402-0.067-1.611-0.67-0.908-2.747c0.704-2.078,3.81-13.268,17.702-16.886   c1.429-0.269,1.957,0.201,2.183,0.854C26.418,8.904,26.255,10.048,25.313,10.286z" fill="#241F20"/><path d="M25.343,54.301c0,0-6.582-1.304-10.621-5.91c-4.039-4.607-3.907-5.036-5.534-9.504   c-0.543-1.459-1.613-1.321-2.013-1.252c-0.402,0.067-1.608,0.676-0.896,2.75c0.711,2.076,3.865,13.251,17.773,16.812   c1.431,0.263,1.956-0.21,2.178-0.863C26.453,55.678,26.284,54.534,25.343,54.301z" fill="#241F20"/><path d="M37.151,54.379c0,0,6.57-1.358,10.571-5.999c4.002-4.641,3.863-5.069,5.453-9.552   c0.531-1.464,1.603-1.333,2.008-1.268c0.401,0.064,1.61,0.661,0.917,2.744c-0.697,2.079-3.758,13.281-17.634,16.959   c-1.427,0.273-1.956-0.192-2.186-0.845C36.052,55.766,36.212,54.621,37.151,54.379z" fill="#241F20"/><path d="M37.478,20.803c0,0,3.267,1.231,5.227,5.302c0.527,0.905,1.382,1.206,2.286,0.754s0.879-1.555,0.679-1.957   c-0.201-0.405-1.96-4.702-6.81-6.988c-0.904-0.302-1.558,0.427-1.759,0.628C36.899,18.742,36.522,19.974,37.478,20.803z" fill="#241F20"/><path d="M25.26,20.803c0,0-3.267,1.231-5.227,5.302c-0.528,0.905-1.382,1.206-2.287,0.754   c-0.905-0.452-0.879-1.555-0.679-1.957c0.201-0.405,1.96-4.702,6.81-6.988c0.905-0.302,1.558,0.427,1.759,0.628   C25.837,18.742,26.214,19.974,25.26,20.803z" fill="#241F20"/><path d="M25.26,43.124c0,0-3.267-1.231-5.227-5.301c-0.528-0.904-1.382-1.206-2.287-0.754   c-0.905,0.452-0.879,1.554-0.679,1.958c0.201,0.402,1.96,4.699,6.81,6.986c0.905,0.301,1.558-0.428,1.759-0.629   C25.837,45.184,26.214,43.953,25.26,43.124z" fill="#241F20"/><path d="M37.478,43.125c0,0,3.267-1.231,5.227-5.304c0.527-0.904,1.382-1.206,2.286-0.753   c0.904,0.452,0.879,1.556,0.679,1.958c-0.201,0.405-1.96,4.702-6.81,6.988c-0.904,0.302-1.558-0.427-1.759-0.628   S36.522,43.954,37.478,43.125z" fill="#241F20"/><path d="M62.454,29.932H33.257V1.545c0-0.889-0.721-1.608-1.608-1.608h-0.905c-0.887,0-1.608,0.719-1.608,1.608   v28.386H1.545c-0.889,0-1.608,0.721-1.608,1.608v0.904c0,0.888,0.719,1.608,1.608,1.608h27.59v28.401   c0,0.888,0.721,1.608,1.608,1.608h0.905c0.887,0,1.608-0.721,1.608-1.608V34.053h29.197c0.889,0,1.608-0.721,1.608-1.608V31.54   C64.062,30.652,63.343,29.932,62.454,29.932z" fill="#241F20"/></g></svg>