<?xml version="1.0" ?><svg viewBox="0 0 32 32" xmlns="http://www.w3.org/2000/svg"><title/><g data-name="13-Clock" id="_13-Clock"><path d="M2,18a12,12,0,0,1,23.08-4.62l1.85-.77A14,14,0,0,0,16,4.15V2h1a2,2,0,0,0,2-2L11,.06A.26.26,0,0,1,11,0H9a2,2,0,0,0,2,2h1V4.16A14,14,0,0,0,14,32V30A12,12,0,0,1,2,18Z"/><path d="M15,11H13v7a1,1,0,0,0,.29.71l1,1,1.41-1.41L15,17.59Z"/><path d="M24,16a8,8,0,1,0,8,8A8,8,0,0,0,24,16Zm0,14a6,6,0,1,1,6-6A6,6,0,0,1,24,30Z"/><path d="M25,21H23v3a1,1,0,0,0,1,1h3V23H25Z"/></g></svg>