<?xml version="1.0" encoding="UTF-8" standalone="no"?>
<svg
   xmlns:dc="http://purl.org/dc/elements/1.1/"
   xmlns:cc="http://creativecommons.org/ns#"
   xmlns:rdf="http://www.w3.org/1999/02/22-rdf-syntax-ns#"
   xmlns:svg="http://www.w3.org/2000/svg"
   xmlns="http://www.w3.org/2000/svg"
   xmlns:xlink="http://www.w3.org/1999/xlink"
   height="100%"
   width="100%"
   xml:space="preserve"
   viewBox="0 0 128 128"
   version="1.1"
   id="Слой_1"
   enable-background="new 0 0 128 128"><metadata
     id="metadata89"><rdf:RDF><cc:Work
         rdf:about=""><dc:format>image/svg+xml</dc:format><dc:type
           rdf:resource="http://purl.org/dc/dcmitype/StillImage" /><dc:title></dc:title></cc:Work></rdf:RDF></metadata><defs
     id="defs87"><linearGradient
       id="linearGradient3838"><stop
         id="stop3840"
         offset="0"
         style="stop-color:#000000;stop-opacity:0;" /><stop
         id="stop3842"
         offset="1"
         style="stop-color:#000000;stop-opacity:0.49803922;" /></linearGradient><radialGradient
       gradientUnits="userSpaceOnUse"
       gradientTransform="matrix(1,0,0,1.8626453,0,-54.120034)"
       r="21.210955"
       fy="62.737297"
       fx="63.965878"
       cy="62.737297"
       cx="63.965878"
       id="radialGradient3846"
       xlink:href="#linearGradient3838" /></defs><g
     id="g3"><path
       id="path3068"
       d="m 63.864407,23.728813 c 0,0 -35.385221,61.235129 -13.423729,75.118645 7.293343,4.610672 14.237288,2.305082 14.237288,2.305082 0,0 5.721297,2.39543 13.016949,-2.440676 C 99.300491,84.390052 63.864407,23.728813 63.864407,23.728813 z"
       style="fill:url(#radialGradient3846);stroke:#000000;stroke-width:1px;stroke-linecap:butt;stroke-linejoin:miter;stroke-opacity:1;fill-opacity:1.0" /><g
       id="g53"><g
         id="g59"><path
           id="path61"
           stroke-width="2"
           stroke-miterlimit="10"
           stroke-linejoin="round"
           stroke-linecap="round"
           stroke="#323638"
           fill="none"
           d="     M19,64" /></g><g
         id="g63"><path
           id="path65"
           stroke-width="2"
           stroke-miterlimit="10"
           stroke-linejoin="round"
           stroke-linecap="round"
           stroke="#323638"
           fill="none"
           d="     M109,64" /></g></g><g
       id="g67"><g
         id="g69"><path
           id="path71"
           fill="#323638"
           d="M64,109.75c-0.414,0-0.75-0.336-0.75-0.75V19c0-0.414,0.336-0.75,0.75-0.75s0.75,0.336,0.75,0.75v90     C64.75,109.414,64.414,109.75,64,109.75z" /></g><g
         id="g73"><path
           id="path75"
           stroke-width="2"
           stroke-miterlimit="10"
           stroke-linejoin="round"
           stroke-linecap="round"
           stroke="#323638"
           fill="none"
           d="     M64,109" /></g><g
         id="g77"><path
           id="path79"
           stroke-width="2"
           stroke-miterlimit="10"
           stroke-linejoin="round"
           stroke-linecap="round"
           stroke="#323638"
           fill="none"
           d="     M64,19" /></g></g><g
       id="g81"><path
         id="path83"
         fill="#323638"
         d="M64.121,66.348c-1.241,0-2.25-1.01-2.25-2.25s1.009-2.25,2.25-2.25s2.25,1.01,2.25,2.25    S65.361,66.348,64.121,66.348z M64.121,63.348c-0.414,0-0.75,0.337-0.75,0.75s0.336,0.75,0.75,0.75s0.75-0.337,0.75-0.75    S64.534,63.348,64.121,63.348z" /></g></g></svg>