<?xml version="1.0" encoding="UTF-8" standalone="no"?>
<svg
   xmlns:dc="http://purl.org/dc/elements/1.1/"
   xmlns:cc="http://creativecommons.org/ns#"
   xmlns:rdf="http://www.w3.org/1999/02/22-rdf-syntax-ns#"
   xmlns:svg="http://www.w3.org/2000/svg"
   xmlns="http://www.w3.org/2000/svg"
   xmlns:xlink="http://www.w3.org/1999/xlink"
   xmlns:sodipodi="http://sodipodi.sourceforge.net/DTD/sodipodi-0.dtd"
   xmlns:inkscape="http://www.inkscape.org/namespaces/inkscape"
   enable-background="new 0 0 128 128"
   id="Слой_1"
   version="1.1"
   viewBox="0 0 128 128"
   xml:space="preserve"
   inkscape:version="0.48.4 r9939"
   width="100%"
   height="100%"
   sodipodi:docname="target.svg"><metadata
     id="metadata89"><rdf:RDF><cc:Work
         rdf:about=""><dc:format>image/svg+xml</dc:format><dc:type
           rdf:resource="http://purl.org/dc/dcmitype/StillImage" /></cc:Work></rdf:RDF></metadata><defs
     id="defs87"><linearGradient
       id="linearGradient3838"><stop
         style="stop-color:#000000;stop-opacity:0;"
         offset="0"
         id="stop3840" /><stop
         style="stop-color:#000000;stop-opacity:0.49803922;"
         offset="1"
         id="stop3842" /></linearGradient><radialGradient
       inkscape:collect="always"
       xlink:href="#linearGradient3838"
       id="radialGradient3846"
       cx="63.965878"
       cy="62.737297"
       fx="63.965878"
       fy="62.737297"
       r="21.210955"
       gradientTransform="matrix(1,0,0,1.8626453,0,-54.120034)"
       gradientUnits="userSpaceOnUse" /></defs><sodipodi:namedview
     pagecolor="#ffffff"
     bordercolor="#666666"
     borderopacity="1"
     objecttolerance="10"
     gridtolerance="10"
     guidetolerance="10"
     inkscape:pageopacity="0"
     inkscape:pageshadow="2"
     inkscape:window-width="1920"
     inkscape:window-height="1058"
     id="namedview85"
     showgrid="false"
     inkscape:zoom="7.375"
     inkscape:cx="35.756177"
     inkscape:cy="62.929332"
     inkscape:window-x="-8"
     inkscape:window-y="-8"
     inkscape:window-maximized="1"
     inkscape:current-layer="g3" /><g
     id="g3"><g
       id="g5"><path
         d="M60.389,105.341c-0.029,0-0.059-0.001-0.089-0.004c-20.106-1.776-35.94-17.664-37.649-37.777    c-0.046-0.551,0.362-1.034,0.912-1.081c0.549-0.055,1.034,0.361,1.081,0.911c1.626,19.144,16.696,34.265,35.832,35.955    c0.55,0.049,0.957,0.534,0.908,1.084C61.338,104.949,60.901,105.341,60.389,105.341z"
         fill="#323638"
         id="path7" /></g><g
       id="g9"><path
         d="M67.449,105.355c-0.514,0-0.952-0.395-0.996-0.916c-0.046-0.55,0.362-1.034,0.913-1.08    c19.153-1.616,34.285-16.686,35.979-35.831c0.048-0.55,0.537-0.961,1.084-0.908c0.55,0.049,0.957,0.534,0.908,1.084    c-1.78,20.117-17.678,35.95-37.803,37.647C67.506,105.354,67.477,105.355,67.449,105.355z"
         fill="#323638"
         id="path11" /></g><g
       id="g13"><path
         d="M104.352,61.524c-0.514,0-0.951-0.394-0.996-0.915c-1.63-19.181-16.733-34.305-35.912-35.962    c-0.55-0.047-0.958-0.532-0.91-1.082c0.047-0.551,0.528-0.968,1.082-0.91c20.151,1.74,36.02,17.631,37.733,37.784    c0.046,0.551-0.362,1.034-0.912,1.081C104.409,61.523,104.38,61.524,104.352,61.524z"
         fill="#323638"
         id="path15" /></g><g
       id="g17"><path
         d="M23.64,61.627c-0.027,0-0.055-0.001-0.083-0.003c-0.551-0.046-0.96-0.529-0.915-1.079    c1.669-20.25,17.576-36.188,37.823-37.896c0.551-0.055,1.034,0.362,1.081,0.912s-0.362,1.034-0.913,1.08    c-19.27,1.627-34.409,16.796-35.998,36.068C24.592,61.231,24.155,61.627,23.64,61.627z"
         fill="#323638"
         id="path19" /></g><g
       id="g21"><path
         d="M60.336,94.022c-0.042,0-0.083-0.003-0.125-0.008c-13.824-1.728-24.619-12.598-26.25-26.434    c-0.064-0.549,0.328-1.046,0.876-1.11c0.557-0.061,1.046,0.328,1.11,0.876c1.524,12.92,11.604,23.07,24.512,24.684    c0.548,0.068,0.937,0.568,0.868,1.116C61.264,93.652,60.833,94.022,60.336,94.022z"
         fill="#323638"
         id="path23" /></g><g
       id="g25"><path
         d="M67.682,94.021c-0.497,0-0.927-0.37-0.991-0.875c-0.069-0.548,0.319-1.049,0.868-1.117    c12.836-1.613,22.902-11.708,24.479-24.55c0.068-0.549,0.572-0.946,1.115-0.87c0.548,0.067,0.938,0.565,0.871,1.114    c-1.688,13.752-12.468,24.562-26.215,26.29C67.766,94.018,67.724,94.021,67.682,94.021z"
         fill="#323638"
         id="path27" /></g><g
       id="g29"><path
         d="M93.056,61.621c-0.501,0-0.933-0.376-0.992-0.886C90.574,47.785,80.5,37.603,67.567,35.973    c-0.548-0.069-0.936-0.569-0.867-1.117c0.069-0.549,0.567-0.934,1.117-0.867c13.851,1.745,24.638,12.65,26.233,26.519    c0.063,0.549-0.331,1.045-0.879,1.107C93.133,61.619,93.094,61.621,93.056,61.621z"
         fill="#323638"
         id="path31" /></g><g
       id="g33"><path
         d="M34.932,61.732c-0.037,0-0.074-0.002-0.112-0.006c-0.549-0.062-0.944-0.556-0.883-1.104    c1.556-13.998,12.407-24.957,26.389-26.651c0.54-0.065,1.046,0.324,1.113,0.873c0.066,0.548-0.324,1.047-0.873,1.113    C47.51,37.538,37.377,47.771,35.924,60.843C35.868,61.354,35.435,61.732,34.932,61.732z"
         fill="#323638"
         id="path35" /></g><g
       id="g37"><path
         d="M60.282,82.615c-0.068,0-0.137-0.007-0.207-0.021c-7.381-1.551-13.142-7.323-14.677-14.708    c-0.112-0.54,0.235-1.069,0.775-1.183c0.542-0.109,1.07,0.234,1.183,0.776c1.374,6.605,6.527,11.771,13.13,13.157    c0.541,0.113,0.887,0.644,0.773,1.185C61.161,82.292,60.745,82.615,60.282,82.615z"
         fill="#323638"
         id="path39" /></g><g
       id="g41"><path
         d="M67.53,82.654c-0.467,0-0.885-0.329-0.98-0.805c-0.107-0.542,0.244-1.068,0.786-1.176    c6.759-1.345,11.995-6.581,13.337-13.341c0.108-0.541,0.631-0.897,1.176-0.785c0.542,0.107,0.894,0.634,0.786,1.176    c-1.501,7.556-7.354,13.409-14.909,14.911C67.66,82.648,67.594,82.654,67.53,82.654z"
         fill="#323638"
         id="path43" /></g><g
       id="g45"><path
         d="M81.633,61.372c-0.465,0-0.882-0.326-0.979-0.8c-1.371-6.698-6.588-11.896-13.292-13.24    c-0.542-0.108-0.892-0.636-0.784-1.177c0.108-0.542,0.631-0.898,1.177-0.784c7.494,1.503,13.326,7.312,14.858,14.801    c0.111,0.541-0.238,1.069-0.779,1.18C81.767,61.365,81.7,61.372,81.633,61.372z"
         fill="#323638"
         id="path47" /></g><g
       id="g49"><path
         d="M46.293,61.75c-0.06,0-0.12-0.005-0.18-0.017c-0.543-0.099-0.904-0.619-0.805-1.163    c1.372-7.522,7.325-13.62,14.813-15.174c0.537-0.11,1.07,0.235,1.182,0.776s-0.235,1.07-0.776,1.183    c-6.699,1.389-12.024,6.844-13.251,13.574C47.188,61.412,46.768,61.75,46.293,61.75z"
         fill="#323638"
         id="path51" /></g><g
       id="g53"><g
         id="g59"><path
           d="     M19,64"
           fill="none"
           stroke="#323638"
           stroke-linecap="round"
           stroke-linejoin="round"
           stroke-miterlimit="10"
           stroke-width="2"
           id="path61" /></g><g
         id="g63"><path
           d="     M109,64"
           fill="none"
           stroke="#323638"
           stroke-linecap="round"
           stroke-linejoin="round"
           stroke-miterlimit="10"
           stroke-width="2"
           id="path65" /></g></g><g
       id="g67"><g
         id="g69"><path
           d="M64,109.75c-0.414,0-0.75-0.336-0.75-0.75V19c0-0.414,0.336-0.75,0.75-0.75s0.75,0.336,0.75,0.75v90     C64.75,109.414,64.414,109.75,64,109.75z"
           fill="#323638"
           id="path71" /></g><g
         id="g73"><path
           d="     M64,109"
           fill="none"
           stroke="#323638"
           stroke-linecap="round"
           stroke-linejoin="round"
           stroke-miterlimit="10"
           stroke-width="2"
           id="path75" /></g><g
         id="g77"><path
           d="     M64,19"
           fill="none"
           stroke="#323638"
           stroke-linecap="round"
           stroke-linejoin="round"
           stroke-miterlimit="10"
           stroke-width="2"
           id="path79" /></g></g><g
       id="g81"><path
         d="M64.121,66.348c-1.241,0-2.25-1.01-2.25-2.25s1.009-2.25,2.25-2.25s2.25,1.01,2.25,2.25    S65.361,66.348,64.121,66.348z M64.121,63.348c-0.414,0-0.75,0.337-0.75,0.75s0.336,0.75,0.75,0.75s0.75-0.337,0.75-0.75    S64.534,63.348,64.121,63.348z"
         fill="#323638"
         id="path83" /></g><path
       style="fill:url(#radialGradient3846);stroke:#000000;stroke-width:1px;stroke-linecap:butt;stroke-linejoin:miter;stroke-opacity:1;fill-opacity:1.0"
       d="m 63.864407,23.728813 c 0,0 -35.385221,61.235129 -13.423729,75.118645 7.293343,4.610672 14.237288,2.305082 14.237288,2.305082 0,0 5.721297,2.39543 13.016949,-2.440676 C 99.300491,84.390052 63.864407,23.728813 63.864407,23.728813 z"
       id="path3068"
       inkscape:connector-curvature="0"
       sodipodi:nodetypes="cscsc" /></g></svg>