<?xml version="1.0" encoding="UTF-8" standalone="no"?>
<!-- Created with Inkscape (http://www.inkscape.org/) -->

<svg
   xmlns:dc="http://purl.org/dc/elements/1.1/"
   xmlns:cc="http://creativecommons.org/ns#"
   xmlns:rdf="http://www.w3.org/1999/02/22-rdf-syntax-ns#"
   xmlns:svg="http://www.w3.org/2000/svg"
   xmlns="http://www.w3.org/2000/svg"
   xmlns:sodipodi="http://sodipodi.sourceforge.net/DTD/sodipodi-0.dtd"
   xmlns:inkscape="http://www.inkscape.org/namespaces/inkscape"
   width="30"
   height="30"
   viewBox="0 0 30 30"
   id="svg4055"
   version="1.1"
   inkscape:version="0.91 r13725"
   sodipodi:docname="twiter.svg">
  <defs
     id="defs4057" />
  <sodipodi:namedview
     id="base"
     pagecolor="#ffffff"
     bordercolor="#666666"
     borderopacity="1.0"
     inkscape:pageopacity="0.0"
     inkscape:pageshadow="2"
     inkscape:zoom="7.9195959"
     inkscape:cx="6.7432601"
     inkscape:cy="41.391401"
     inkscape:document-units="px"
     inkscape:current-layer="layer1"
     showgrid="false"
     units="px"
     inkscape:window-width="1536"
     inkscape:window-height="841"
     inkscape:window-x="1528"
     inkscape:window-y="-8"
     inkscape:window-maximized="1" />
  <metadata
     id="metadata4060">
    <rdf:RDF>
      <cc:Work
         rdf:about="">
        <dc:format>image/svg+xml</dc:format>
        <dc:type
           rdf:resource="http://purl.org/dc/dcmitype/StillImage" />
        <dc:title></dc:title>
      </cc:Work>
    </rdf:RDF>
  </metadata>
  <g
     inkscape:label="Calque 1"
     inkscape:groupmode="layer"
     id="layer1"
     transform="translate(0,-1022.3622)">
    <g
       style="fill:none;fill-rule:evenodd;stroke:none;stroke-width:1"
       id="Twitter"
       transform="matrix(0.5,0,0,0.5,0.13061247,1022.5887)">
      <path
         style="fill:#4099ff"
         inkscape:connector-curvature="0"
         id="path3571"
         d="M 0,30 C 0,13.431457 13.450866,0 30.043353,0 c 16.592486,0 30.043352,13.431457 30.043352,30 0,16.568543 -13.450866,30 -30.043352,30 C 13.450866,60 0,46.568543 0,30 Z m 0,0" />
      <path
         style="fill:#ffffff"
         inkscape:connector-curvature="0"
         id="path3573"
         d="m 29.299768,23.887978 0.06295,1.038067 -1.049219,-0.12711 c -3.819158,-0.487256 -7.155674,-2.139691 -9.988565,-4.914933 l -1.384969,-1.377028 -0.356735,1.016882 c -0.755437,2.266801 -0.272797,4.660712 1.301032,6.270776 0.839375,0.889773 0.650516,1.016883 -0.797407,0.487257 -0.503625,-0.169481 -0.944297,-0.296591 -0.986266,-0.233036 -0.14689,0.148296 0.356735,2.076135 0.755438,2.838797 0.545594,1.059253 1.657766,2.097321 2.87486,2.711687 l 1.028235,0.487257 -1.217094,0.02119 c -1.175125,0 -1.217094,0.02119 -1.091188,0.466071 0.419688,1.377029 2.077454,2.838797 3.924079,3.474349 l 1.301032,0.444886 -1.133157,0.677922 c -1.67875,0.974512 -3.651282,1.525324 -5.623814,1.567694 -0.944297,0.02119 -1.720719,0.105925 -1.720719,0.16948 0,0.211851 2.560094,1.398214 4.049985,1.864285 4.469673,1.377029 9.778721,0.783847 13.765754,-1.567694 2.832891,-1.673619 5.665782,-4.999673 6.987798,-8.219801 0.713469,-1.71599 1.426938,-4.851378 1.426938,-6.355516 0,-0.974513 0.06295,-1.101623 1.238078,-2.266801 0.692485,-0.677922 1.343001,-1.419399 1.468907,-1.63125 0.209844,-0.402516 0.18886,-0.402516 -0.881344,-0.04237 -1.783672,0.635552 -2.035485,0.550812 -1.154141,-0.402516 0.650516,-0.677922 1.426938,-1.906655 1.426938,-2.266801 0,-0.06356 -0.314766,0.04237 -0.6715,0.233036 -0.377719,0.211851 -1.217094,0.529626 -1.846626,0.720292 l -1.133156,0.360146 -1.028235,-0.699107 c -0.566578,-0.381331 -1.363984,-0.805032 -1.783672,-0.932142 -1.070203,-0.296591 -2.706985,-0.254221 -3.672266,0.08474 -2.623048,0.953327 -4.280814,3.410794 -4.091954,6.101296 z m 0,0" />
      <path
         style="fill:#000000;fill-opacity:0.07999998"
         inkscape:connector-curvature="0"
         id="path3575"
         d="m 60.086705,30 c 0,16.568543 -13.450866,30 -30.043352,30 C 23.889592,60 18.16796,58.152513 13.40449,54.982775 L 47.829048,5.819411 C 55.262811,11.28065 60.086705,20.077797 60.086705,30 Z m 0,0" />
    </g>
  </g>
</svg>
