<?xml version="1.0" encoding="utf-8"?>
<!-- Generator: Adobe Illustrator 16.0.0, SVG Export Plug-In . SVG Version: 6.00 Build 0)  -->
<!DOCTYPE svg PUBLIC "-//W3C//DTD SVG 1.1//EN" "http://www.w3.org/Graphics/SVG/1.1/DTD/svg11.dtd">
<svg version="1.1" id="Calque_1" xmlns="http://www.w3.org/2000/svg" xmlns:xlink="http://www.w3.org/1999/xlink" x="0px" y="0px"
	 width="30px" height="30px" viewBox="0 0 30 30" enable-background="new 0 0 30 30" xml:space="preserve">
<g id="Twitter">
	<path fill="#5C91CC" d="M0.021,15c0-8.284,6.726-15,15.021-15c8.297,0,15.022,6.716,15.022,15S23.34,30,15.043,30
		C6.747,30,0.021,23.284,0.021,15z"/>
	<path id="Path_17_" fill="#FFFFFF" d="M14.672,11.944l0.031,0.519l-0.524-0.064c-1.91-0.244-3.578-1.07-4.995-2.457L8.491,9.253
		L8.313,9.762c-0.378,1.133-0.137,2.33,0.65,3.135c0.42,0.445,0.325,0.508-0.398,0.244c-0.252-0.085-0.473-0.148-0.493-0.117
		c-0.074,0.074,0.178,1.038,0.377,1.419c0.273,0.53,0.829,1.048,1.438,1.356l0.515,0.243l-0.608,0.012
		c-0.588,0-0.609,0.01-0.546,0.232c0.21,0.688,1.039,1.42,1.962,1.737l0.65,0.222l-0.566,0.34c-0.839,0.486-1.825,0.762-2.812,0.783
		c-0.473,0.011-0.86,0.053-0.86,0.085c0,0.106,1.279,0.699,2.024,0.933c2.235,0.688,4.89,0.392,6.883-0.784
		c1.417-0.837,2.833-2.5,3.494-4.11c0.356-0.857,0.714-2.425,0.714-3.177c0-0.487,0.031-0.551,0.619-1.133
		c0.346-0.339,0.671-0.71,0.734-0.816c0.104-0.201,0.094-0.201-0.441-0.021c-0.892,0.318-1.018,0.275-0.577-0.201
		c0.326-0.339,0.714-0.954,0.714-1.134c0-0.032-0.157,0.021-0.336,0.117c-0.188,0.106-0.608,0.265-0.923,0.36l-0.566,0.18
		l-0.515-0.349c-0.283-0.191-0.682-0.403-0.892-0.466c-0.535-0.148-1.354-0.127-1.836,0.042
		C15.406,9.37,14.577,10.599,14.672,11.944z"/>
	<path id="reflec_27_" fill="#010101" fill-opacity="0.08" d="M30.065,15c0,8.284-6.726,15-15.022,15
		c-3.076,0-5.938-0.924-8.319-2.508L23.937,2.91C27.653,5.641,30.065,10.039,30.065,15z"/>
</g>
</svg>
